<?xml version="1.0" encoding="utf-8"?>
<!-- Generator: Adobe Illustrator 16.0.4, SVG Export Plug-In . SVG Version: 6.00 Build 0)  -->
<!DOCTYPE svg PUBLIC "-//W3C//DTD SVG 1.1//EN" "http://www.w3.org/Graphics/SVG/1.1/DTD/svg11.dtd">
<svg version="1.1" id="Layer_1" xmlns="http://www.w3.org/2000/svg" xmlns:xlink="http://www.w3.org/1999/xlink" x="0px" y="0px"
	 width="294.382px" height="117.977px" viewBox="0 0 294.382 117.977" enable-background="new 0 0 294.382 117.977"
	 xml:space="preserve">
<g>
	<path fill="#FFCC00" d="M156.833,67.65c-10.062,0-17.478-9.034-17.478-23.872c0-15.093,7.417-23.786,17.648-23.786
		c5.628,0,8.695,1.787,10.146,3.068l-1.79,4.349c-1.366-1.024-3.411-2.216-6.82-2.216c-8.356,0-11.596,7.584-11.596,18.329
		c0,10.998,3.923,18.586,11.34,18.586c3.156,0,5.285-1.021,6.993-2.218l1.874,4.69C165.36,66.201,161.949,67.65,156.833,67.65z"/>
	<path fill="#FFCC00" d="M190.25,67.65c-10.062,0-17.477-9.034-17.477-23.872c0-15.093,7.42-23.786,17.649-23.786
		c5.628,0,8.696,1.787,10.145,3.068l-1.788,4.349c-1.368-1.024-3.411-2.216-6.822-2.216c-8.353,0-11.595,7.584-11.595,18.329
		c0,10.998,3.922,18.586,11.339,18.586c3.153,0,5.287-1.021,6.992-2.218l1.873,4.69C198.778,66.201,195.367,67.65,190.25,67.65z"/>
	<path fill="#FFCC00" d="M213.268,46.677c0.854,10.404,5.712,15.52,13.98,15.52c5.202,0,8.954-1.28,11.341-2.646l1.961,4.945
		c-2.812,1.706-7.674,3.152-13.896,3.152c-12.021,0-20.463-7.586-20.463-23.958c0-15.601,7.672-23.699,18.501-23.699
		c11,0,17.65,7.159,17.479,22.506L213.268,46.677z M224.438,24.85c-6.651,0-11.595,5.37-11.427,17.817l22.001-3.325
		C235.01,28.943,231.001,24.85,224.438,24.85z"/>
	<path fill="#FFCC00" d="M256.148,46.677c0.852,10.404,5.711,15.52,13.983,15.52c5.2,0,8.952-1.28,11.337-2.646l1.961,4.945
		c-2.81,1.706-7.672,3.152-13.896,3.152c-12.02,0-20.461-7.586-20.461-23.958c0-15.601,7.674-23.699,18.503-23.699
		c10.998,0,17.647,7.159,17.476,22.506L256.148,46.677z M267.314,24.85c-6.649,0-11.593,5.37-11.422,17.817l21.998-3.325
		C277.888,28.943,273.88,24.85,267.314,24.85z"/>
</g>
<g>
	<path fill="#FFCC00" d="M22.868,85.299c-6.975,0-13.279-1.345-16.893-3.362l3.363-8.489c2.773,1.513,6.891,2.688,11.177,2.688
		c6.892,0,9.414-3.277,9.414-8.488v-2.521c-1.513,0.84-4.119,1.429-7.901,1.429c-10.842,0-18.658-8.32-18.658-21.853
		c0-15.129,7.733-24.625,23.281-24.625c6.976,0,12.859,1.429,16.053,3.362v43.117C42.704,79.417,34.468,85.299,22.868,85.299z
		 M29.929,28.399c-1.009-0.503-2.354-0.757-4.119-0.757c-6.723,0-9.497,5.463-9.497,16.305c0,10.254,2.69,15.128,9.245,15.128
		c1.766,0,3.278-0.421,4.371-1.092V28.399z"/>
	<path fill="#FFCC00" d="M71.617,67.062c-12.775,0-18.995-4.792-18.995-15.717V20.919h13.112v31.35c0,3.277,1.765,5.968,6.22,5.968
		c2.353,0,4.034-0.335,5.463-1.094V20.919h13.111v42.611C86.326,65.632,80.106,67.062,71.617,67.062z"/>
	<path fill="#FFCC00" d="M124.063,66.221l-7.145-14.457l-0.167-0.084l-7.396,14.541H96.077l14.204-23.366L97.506,20.92h13.783
		l6.555,13.111h0.168l6.976-13.111h12.187l-13.027,21.012l14.372,24.29L124.063,66.221L124.063,66.221z"/>
</g>
<g>
	<path fill="#718B99" d="M11.663,107.714c-3.307,0-4.678-1.665-4.678-4.31v-9.159H9.14v9.232c0,1.544,0.833,2.719,2.646,2.719
		c1.028,0,1.763-0.171,2.375-0.539V94.245h2.155v12.416C15.335,107.226,13.793,107.714,11.663,107.714z"/>
	<path fill="#718B99" d="M22.365,107.641c-1.421,0-2.669-0.367-3.38-0.906l0.587-1.42c0.465,0.392,1.396,0.784,2.572,0.784
		c1.469,0,2.449-1.004,2.449-2.277c0-1.371-0.735-1.984-2.18-2.523c-2.572-0.955-3.086-2.325-3.086-3.697
		c0-1.959,1.543-3.624,3.943-3.624c1.347,0,2.4,0.439,3.086,0.905l-0.562,1.298c-0.392-0.293-1.176-0.734-2.205-0.734
		c-1.444,0-2.203,0.955-2.203,2.082c0,1.273,0.93,1.886,2.203,2.375c2.572,0.979,3.208,2.352,3.208,3.87
		C26.797,105.781,25.059,107.641,22.365,107.641z"/>
	<path fill="#718B99" d="M31.206,101.666c0.245,2.986,1.64,4.457,4.016,4.457c1.494,0,2.572-0.367,3.257-0.76l0.563,1.421
		c-0.809,0.489-2.203,0.906-3.991,0.906c-3.453,0-5.877-2.18-5.877-6.883c0-4.481,2.204-6.808,5.314-6.808
		c3.159,0,5.069,2.058,5.021,6.465L31.206,101.666z M34.414,95.397c-1.911,0-3.33,1.543-3.282,5.118l6.319-0.956
		C37.451,96.572,36.299,95.397,34.414,95.397z"/>
	<path fill="#718B99" d="M47.638,95.665c-1.077-0.318-2.302-0.22-3.012,0.245v11.535h-2.155V94.956
		c1.298-0.661,2.547-1.005,5.682-0.932L47.638,95.665z"/>
	<path fill="#718B99" d="M58.635,101.666c0.246,2.986,1.641,4.457,4.016,4.457c1.494,0,2.572-0.367,3.257-0.76l0.563,1.421
		c-0.809,0.489-2.204,0.906-3.992,0.906c-3.453,0-5.877-2.18-5.877-6.883c0-4.481,2.203-6.808,5.313-6.808
		c3.16,0,5.069,2.058,5.021,6.465L58.635,101.666z M61.843,95.397c-1.911,0-3.331,1.543-3.282,5.118l6.319-0.956
		C64.879,96.572,63.729,95.397,61.843,95.397z"/>
	<path fill="#718B99" d="M76.366,107.446l-2.841-5.362h-0.049l-2.89,5.362h-2.228l4.089-6.833l-3.649-6.367h2.253l2.571,4.824h0.049
		l2.622-4.824h2.032l-3.674,6.196l4.09,7.004H76.366z"/>
	<path fill="#718B99" d="M85.256,107.641c-0.76,0-1.567-0.146-2.057-0.317v5.388h-2.131v-17.78c0.882-0.515,2.229-0.93,4.115-0.93
		c3.722,0,5.829,2.596,5.829,6.637C91.011,105.022,88.733,107.641,85.256,107.641z M85.085,95.299c-0.808,0-1.372,0.146-1.886,0.366
		v10.36c0.417,0.171,0.955,0.292,1.616,0.292c2.669,0,4.041-2.082,4.041-5.583C88.856,97.38,87.876,95.299,85.085,95.299z"/>
	<path fill="#718B99" d="M95.493,101.666c0.246,2.986,1.64,4.457,4.016,4.457c1.494,0,2.572-0.367,3.257-0.76l0.563,1.421
		c-0.808,0.489-2.203,0.906-3.991,0.906c-3.453,0-5.877-2.18-5.877-6.883c0-4.481,2.204-6.808,5.314-6.808
		c3.159,0,5.069,2.058,5.021,6.465L95.493,101.666z M98.701,95.397c-1.911,0-3.331,1.543-3.282,5.118l6.319-0.956
		C101.737,96.572,100.586,95.397,98.701,95.397z"/>
	<path fill="#718B99" d="M111.925,95.665c-1.077-0.318-2.301-0.22-3.012,0.245v11.535h-2.155V94.956
		c1.298-0.661,2.547-1.005,5.681-0.932L111.925,95.665z"/>
	<path fill="#718B99" d="M115.869,91.698c-0.71,0-1.273-0.538-1.273-1.176c0-0.661,0.563-1.2,1.273-1.2
		c0.686,0,1.249,0.539,1.249,1.2C117.117,91.16,116.554,91.698,115.869,91.698z M114.791,107.446v-13.2h2.155v13.2H114.791z"/>
	<path fill="#718B99" d="M122.065,101.666c0.245,2.986,1.64,4.457,4.016,4.457c1.494,0,2.571-0.367,3.257-0.76l0.563,1.421
		c-0.809,0.489-2.203,0.906-3.991,0.906c-3.453,0-5.877-2.18-5.877-6.883c0-4.481,2.203-6.808,5.314-6.808
		c3.159,0,5.069,2.058,5.021,6.465L122.065,101.666z M125.273,95.397c-1.911,0-3.331,1.543-3.282,5.118l6.319-0.956
		C128.309,96.572,127.158,95.397,125.273,95.397z"/>
	<path fill="#718B99" d="M140.75,107.446v-9.478c0-1.225-0.515-2.571-2.768-2.571c-1.225,0-1.812,0.171-2.498,0.466v11.583h-2.155
		V94.931c1.175-0.562,2.718-0.93,4.824-0.93c3.674,0,4.751,2.033,4.751,3.919v9.526L140.75,107.446L140.75,107.446z"/>
	<path fill="#718B99" d="M150.89,107.691c-2.891,0-5.021-2.596-5.021-6.857c0-4.335,2.13-6.833,5.068-6.833
		c1.617,0,2.5,0.515,2.916,0.881l-0.516,1.249c-0.391-0.293-0.979-0.637-1.959-0.637c-2.398,0-3.331,2.18-3.331,5.266
		c0,3.159,1.128,5.339,3.258,5.339c0.906,0,1.518-0.294,2.008-0.637l0.538,1.346C153.338,107.274,152.359,107.691,150.89,107.691z"
		/>
	<path fill="#718B99" d="M157.479,101.666c0.244,2.986,1.64,4.457,4.016,4.457c1.494,0,2.571-0.367,3.256-0.76l0.562,1.421
		c-0.808,0.489-2.203,0.906-3.991,0.906c-3.453,0-5.877-2.18-5.877-6.883c0-4.481,2.204-6.808,5.313-6.808
		c3.161,0,5.071,2.058,5.021,6.465L157.479,101.666z M160.686,95.397c-1.91,0-3.331,1.543-3.281,5.118l6.318-0.956
		C163.723,96.572,162.572,95.397,160.686,95.397z"/>
	<path fill="#718B99" d="M178.391,95.592v11.854h-2.155V95.592h-1.518v-1.347h1.518v-1.86c0-2.596,1.568-4.286,4.459-4.163v1.371
		c-1.299,0.072-2.304,0.687-2.304,2.546v2.106h2.304v1.347H178.391z"/>
	<path fill="#718B99" d="M188.262,95.665c-1.079-0.318-2.303-0.22-3.013,0.245v11.535h-2.155V94.956
		c1.297-0.661,2.546-1.005,5.681-0.932L188.262,95.665z"/>
	<path fill="#718B99" d="M194.924,107.691c-3.431,0-5.021-1.494-5.021-3.894c0-3.503,3.282-4.531,7.371-4.947v-0.809
		c0-2.034-1.224-2.622-2.914-2.622c-1.273,0-2.449,0.467-3.185,0.833l-0.514-1.274c0.758-0.416,2.228-0.979,4.041-0.979
		c2.448,0,4.604,1.054,4.604,4.285v8.474C198.303,107.323,196.76,107.691,194.924,107.691z M197.273,99.951
		c-3.33,0.417-5.314,1.127-5.314,3.796c0,1.91,1.177,2.694,3.135,2.694c0.832,0,1.642-0.147,2.18-0.441V99.951L197.273,99.951z"/>
	<path fill="#718B99" d="M217.626,107.446v-9.502c0-1.323-0.638-2.524-2.546-2.524c-1.103,0-1.96,0.369-2.719,1.177v10.849h-2.155
		v-9.6c0-1.469-0.979-2.448-2.891-2.448c-1.076,0-1.665,0.146-2.376,0.44v11.607h-2.154V94.931c1.2-0.588,2.475-0.93,4.581-0.93
		c2.031,0,3.256,0.611,4.041,1.592c0.905-0.954,2.252-1.592,4.089-1.592c3.16,0,4.284,2.058,4.284,3.894v9.551H217.626z"/>
	<path fill="#718B99" d="M224.778,101.666c0.244,2.986,1.641,4.457,4.017,4.457c1.492,0,2.571-0.367,3.256-0.76l0.562,1.421
		c-0.808,0.489-2.203,0.906-3.99,0.906c-3.454,0-5.878-2.18-5.878-6.883c0-4.481,2.205-6.808,5.314-6.808
		c3.16,0,5.07,2.058,5.021,6.465L224.778,101.666z M227.987,95.397c-1.91,0-3.331,1.543-3.282,5.118l6.318-0.956
		C231.023,96.572,229.873,95.397,227.987,95.397z"/>
	<path fill="#718B99" d="M248.361,107.446h-1.86l-2.668-9.429c-0.221-0.808-0.271-1.543-0.271-1.543h-0.022
		c0,0-0.074,0.735-0.319,1.543l-2.717,9.429h-1.861l-3.748-13.2h2.205l2.303,9.478c0.221,0.907,0.269,1.567,0.269,1.567h0.05
		c0,0,0.072-0.66,0.318-1.567l2.668-9.478h1.861l2.596,9.478c0.198,0.759,0.295,1.567,0.295,1.567h0.048c0,0,0.072-0.809,0.27-1.592
		l2.399-9.453h1.958L248.361,107.446z"/>
	<path fill="#718B99" d="M259.04,107.691c-3.6,0-5.166-2.964-5.166-6.833c0-3.943,1.592-6.857,5.143-6.857
		c3.623,0,5.168,2.914,5.168,6.857C264.184,104.727,262.616,107.691,259.04,107.691z M259.04,95.372
		c-2.521,0-3.011,2.816-3.011,5.486c0,2.669,0.538,5.339,3.011,5.339c2.523,0,2.989-2.694,2.989-5.339S261.563,95.372,259.04,95.372
		z"/>
	<path fill="#718B99" d="M272.314,95.665c-1.076-0.318-2.303-0.22-3.013,0.245v11.535h-2.155V94.956
		c1.299-0.661,2.548-1.005,5.682-0.932L272.314,95.665z"/>
	<path fill="#718B99" d="M282.355,107.446l-5.045-6.808h-0.05v6.808h-2.105V88.221h2.105v12.146h0.05l4.702-6.123h2.253
		l-4.997,6.172l5.536,7.027h-2.449V107.446z"/>
</g>
</svg>
