<?xml version="1.0" encoding="utf-8"?>
<!-- Generator: Adobe Illustrator 16.0.4, SVG Export Plug-In . SVG Version: 6.00 Build 0)  -->
<!DOCTYPE svg PUBLIC "-//W3C//DTD SVG 1.1//EN" "http://www.w3.org/Graphics/SVG/1.1/DTD/svg11.dtd">
<svg version="1.1" id="Layer_1" xmlns="http://www.w3.org/2000/svg" xmlns:xlink="http://www.w3.org/1999/xlink" x="0px" y="0px"
	 width="93px" height="96px" viewBox="0 0 93 96" enable-background="new 0 0 93 96" xml:space="preserve">
<g>
	<path fill="#FFCC00" d="M56.78,6.371c-7.621,0.871-15.841,2.674-24.467,5.95c-10.027,3.877-14.64,6.15-22.261,11.899
		c11.03-4.746,21.993-7.955,39.775-9.494c6.684-0.6,12.969-0.268,18.918,0.468c3.209,3.476,5.747,7.556,7.485,12.033
		c-7.286-1.269-15.241-2.07-23.597-2.206C40.6,24.752,29.37,25.957,19.81,28.095c10.295-0.602,22.458,0.401,35.227,3.142
		c8.559,1.805,16.512,4.211,23.663,7.021c0.067,0.936,0.067,1.803,0.067,2.739c0,3.008-0.334,5.882-1.003,8.624
		c-1.737-0.87-3.609-1.803-5.481-2.674c-5.146-2.341-10.562-4.479-16.378-6.351c-16.847-5.481-33.29-6.819-45.323-5.883
		c-0.668,0.067-1.27,0.201-1.872,0.334c-1.873-0.871-3.744-1.738-5.548-2.676C7.106,15.394,22.283,2.692,40.465,2.692
		C46.285,2.694,51.834,4.032,56.78,6.371z"/>
	<path fill="#FFCC00" d="M24.226,75.692c7.553-0.937,15.776-2.674,24.398-6.016c10.095-3.879,14.642-6.149,22.261-11.897
		c-11.028,4.745-21.926,7.955-39.708,9.494c-6.751,0.599-13.035,0.267-18.918-0.403c-3.208-3.541-5.749-7.62-7.487-12.099
		c7.219,1.336,15.174,2.072,23.597,2.271c12.033,0.202,23.263-0.936,32.755-3.141c-10.229,0.6-22.394-0.404-35.162-3.075
		c-8.556-1.874-16.578-4.276-23.664-7.087c-0.066-0.936-0.066-1.803-0.066-2.741c0-2.941,0.334-5.882,0.938-8.624
		c6.551,3.344,13.971,6.417,21.924,9.027c16.779,5.479,33.224,6.818,45.323,5.883c0.603-0.067,1.271-0.202,1.805-0.335
		c1.939,0.872,3.81,1.806,5.549,2.674c-3.877,16.979-19.118,29.684-37.301,29.684C34.654,79.303,29.172,77.966,24.226,75.692z"/>
</g>
</svg>
