<?xml version="1.0" encoding="utf-8"?>
<!-- Generator: Adobe Illustrator 21.0.0, SVG Export Plug-In . SVG Version: 6.00 Build 0)  -->
<svg version="1.1" id="Layer_1" xmlns="http://www.w3.org/2000/svg" xmlns:xlink="http://www.w3.org/1999/xlink" x="0px" y="0px"
	 viewBox="0 0 294.4 118" style="enable-background:new 0 0 294.4 118;" xml:space="preserve">
<style type="text/css">
	.st0{fill:#FFCC00;}
	.st1{fill:#EAEAEA;}
	.st2{fill:none;stroke:#C6BD9B;stroke-miterlimit:10;}
	.st3{fill:#718B99;}
</style>
<g>
	<path class="st0" d="M26.3,67.1c-13.3,0-19.7-5-19.7-16.3V19.1h13.6v32.6c0,3.4,1.8,6.2,6.5,6.2c2.4,0,4.2-0.3,5.7-1.1V19.1H46
		v44.2C41.6,65.6,35.2,67.1,26.3,67.1z"/>
	<path class="st0" d="M80.8,66.2l-7.4-15l-0.2-0.1l-7.7,15.1H51.7l14.7-24.3L53.2,19.1h14.3l6.8,13.6h0.2l7.2-13.6h12.7L80.9,41
		l14.9,25.2L80.8,66.2L80.8,66.2z"/>
</g>
<g>
	<path class="st1" d="M121.9,67.1c-13.3,0-19.7-5-19.7-16.3V19.1h13.6v32.6c0,3.4,1.8,6.2,6.5,6.2c2.4,0,4.2-0.3,5.7-1.1V19.1h13.6
		v44.2C137.2,65.6,130.7,67.1,121.9,67.1z"/>
	<path class="st1" d="M176.3,66.2l-7.4-15l-0.2-0.1l-7.7,15.1h-13.8L162,41.9l-13.3-22.8h14.3l6.8,13.6h0.2l7.2-13.6H190L176.4,41
		l14.9,25.2L176.3,66.2L176.3,66.2z"/>
</g>
<g>
	<path class="st2" d="M215.3,67.1c-13.3,0-19.7-5-19.7-16.3V19.1h13.6v32.6c0,3.4,1.8,6.2,6.5,6.2c2.4,0,4.2-0.3,5.7-1.1V19.1H235
		v44.2C230.6,65.6,224.1,67.1,215.3,67.1z"/>
	<path class="st2" d="M269.8,66.2l-7.4-15l-0.2-0.1l-7.7,15.1h-13.8l14.7-24.3l-13.3-22.8h14.3l6.8,13.6h0.2l7.2-13.6h12.7L269.9,41
		l14.9,25.2L269.8,66.2L269.8,66.2z"/>
</g>
<g>
	<path class="st3" d="M11.7,107.7c-3.3,0-4.7-1.7-4.7-4.3v-9.2h2.2v9.2c0,1.5,0.8,2.7,2.6,2.7c1,0,1.8-0.2,2.4-0.5V94.2h2.2v12.4
		C15.3,107.2,13.8,107.7,11.7,107.7z"/>
	<path class="st3" d="M22.4,107.6c-1.4,0-2.7-0.4-3.4-0.9l0.6-1.4c0.5,0.4,1.4,0.8,2.6,0.8c1.5,0,2.4-1,2.4-2.3c0-1.4-0.7-2-2.2-2.5
		c-2.6-1-3.1-2.3-3.1-3.7c0-2,1.5-3.6,3.9-3.6c1.3,0,2.4,0.4,3.1,0.9l-0.6,1.3c-0.4-0.3-1.2-0.7-2.2-0.7c-1.4,0-2.2,1-2.2,2.1
		c0,1.3,0.9,1.9,2.2,2.4c2.6,1,3.2,2.4,3.2,3.9C26.8,105.8,25.1,107.6,22.4,107.6z"/>
	<path class="st3" d="M31.2,101.7c0.2,3,1.6,4.5,4,4.5c1.5,0,2.6-0.4,3.3-0.8l0.6,1.4c-0.8,0.5-2.2,0.9-4,0.9
		c-3.5,0-5.9-2.2-5.9-6.9c0-4.5,2.2-6.8,5.3-6.8c3.2,0,5.1,2.1,5,6.5L31.2,101.7z M34.4,95.4c-1.9,0-3.3,1.5-3.3,5.1l6.3-1
		C37.5,96.6,36.3,95.4,34.4,95.4z"/>
	<path class="st3" d="M47.6,95.7c-1.1-0.3-2.3-0.2-3,0.2v11.5h-2.2V95c1.3-0.7,2.5-1,5.7-0.9L47.6,95.7z"/>
	<path class="st3" d="M58.6,101.7c0.2,3,1.6,4.5,4,4.5c1.5,0,2.6-0.4,3.3-0.8l0.6,1.4c-0.8,0.5-2.2,0.9-4,0.9
		c-3.5,0-5.9-2.2-5.9-6.9c0-4.5,2.2-6.8,5.3-6.8c3.2,0,5.1,2.1,5,6.5L58.6,101.7z M61.8,95.4c-1.9,0-3.3,1.5-3.3,5.1l6.3-1
		C64.9,96.6,63.7,95.4,61.8,95.4z"/>
	<path class="st3" d="M76.4,107.4l-2.8-5.4h0l-2.9,5.4h-2.2l4.1-6.8l-3.6-6.4h2.3l2.6,4.8h0l2.6-4.8h2l-3.7,6.2l4.1,7H76.4z"/>
	<path class="st3" d="M85.3,107.6c-0.8,0-1.6-0.1-2.1-0.3v5.4h-2.1V94.9c0.9-0.5,2.2-0.9,4.1-0.9c3.7,0,5.8,2.6,5.8,6.6
		C91,105,88.7,107.6,85.3,107.6z M85.1,95.3c-0.8,0-1.4,0.1-1.9,0.4V106c0.4,0.2,1,0.3,1.6,0.3c2.7,0,4-2.1,4-5.6
		C88.9,97.4,87.9,95.3,85.1,95.3z"/>
	<path class="st3" d="M95.5,101.7c0.2,3,1.6,4.5,4,4.5c1.5,0,2.6-0.4,3.3-0.8l0.6,1.4c-0.8,0.5-2.2,0.9-4,0.9
		c-3.5,0-5.9-2.2-5.9-6.9c0-4.5,2.2-6.8,5.3-6.8c3.2,0,5.1,2.1,5,6.5L95.5,101.7z M98.7,95.4c-1.9,0-3.3,1.5-3.3,5.1l6.3-1
		C101.7,96.6,100.6,95.4,98.7,95.4z"/>
	<path class="st3" d="M111.9,95.7c-1.1-0.3-2.3-0.2-3,0.2v11.5h-2.2V95c1.3-0.7,2.5-1,5.7-0.9L111.9,95.7z"/>
	<path class="st3" d="M115.9,91.7c-0.7,0-1.3-0.5-1.3-1.2c0-0.7,0.6-1.2,1.3-1.2c0.7,0,1.2,0.5,1.2,1.2
		C117.1,91.2,116.6,91.7,115.9,91.7z M114.8,107.4V94.2h2.2v13.2H114.8z"/>
	<path class="st3" d="M122.1,101.7c0.2,3,1.6,4.5,4,4.5c1.5,0,2.6-0.4,3.3-0.8l0.6,1.4c-0.8,0.5-2.2,0.9-4,0.9
		c-3.5,0-5.9-2.2-5.9-6.9c0-4.5,2.2-6.8,5.3-6.8c3.2,0,5.1,2.1,5,6.5L122.1,101.7z M125.3,95.4c-1.9,0-3.3,1.5-3.3,5.1l6.3-1
		C128.3,96.6,127.2,95.4,125.3,95.4z"/>
	<path class="st3" d="M140.8,107.4V98c0-1.2-0.5-2.6-2.8-2.6c-1.2,0-1.8,0.2-2.5,0.5v11.6h-2.2V94.9c1.2-0.6,2.7-0.9,4.8-0.9
		c3.7,0,4.8,2,4.8,3.9v9.5H140.8L140.8,107.4z"/>
	<path class="st3" d="M150.9,107.7c-2.9,0-5-2.6-5-6.9c0-4.3,2.1-6.8,5.1-6.8c1.6,0,2.5,0.5,2.9,0.9l-0.5,1.2c-0.4-0.3-1-0.6-2-0.6
		c-2.4,0-3.3,2.2-3.3,5.3c0,3.2,1.1,5.3,3.3,5.3c0.9,0,1.5-0.3,2-0.6l0.5,1.3C153.3,107.3,152.4,107.7,150.9,107.7z"/>
	<path class="st3" d="M157.5,101.7c0.2,3,1.6,4.5,4,4.5c1.5,0,2.6-0.4,3.3-0.8l0.6,1.4c-0.8,0.5-2.2,0.9-4,0.9
		c-3.5,0-5.9-2.2-5.9-6.9c0-4.5,2.2-6.8,5.3-6.8c3.2,0,5.1,2.1,5,6.5L157.5,101.7z M160.7,95.4c-1.9,0-3.3,1.5-3.3,5.1l6.3-1
		C163.7,96.6,162.6,95.4,160.7,95.4z"/>
	<path class="st3" d="M178.4,95.6v11.9h-2.2V95.6h-1.5v-1.3h1.5v-1.9c0-2.6,1.6-4.3,4.5-4.2v1.4c-1.3,0.1-2.3,0.7-2.3,2.5v2.1h2.3
		v1.3H178.4z"/>
	<path class="st3" d="M188.3,95.7c-1.1-0.3-2.3-0.2-3,0.2v11.5h-2.2V95c1.3-0.7,2.5-1,5.7-0.9L188.3,95.7z"/>
	<path class="st3" d="M194.9,107.7c-3.4,0-5-1.5-5-3.9c0-3.5,3.3-4.5,7.4-4.9V98c0-2-1.2-2.6-2.9-2.6c-1.3,0-2.4,0.5-3.2,0.8
		l-0.5-1.3c0.8-0.4,2.2-1,4-1c2.4,0,4.6,1.1,4.6,4.3v8.5C198.3,107.3,196.8,107.7,194.9,107.7z M197.3,100c-3.3,0.4-5.3,1.1-5.3,3.8
		c0,1.9,1.2,2.7,3.1,2.7c0.8,0,1.6-0.1,2.2-0.4L197.3,100L197.3,100z"/>
	<path class="st3" d="M217.6,107.4v-9.5c0-1.3-0.6-2.5-2.5-2.5c-1.1,0-2,0.4-2.7,1.2v10.8h-2.2v-9.6c0-1.5-1-2.4-2.9-2.4
		c-1.1,0-1.7,0.1-2.4,0.4v11.6h-2.2V94.9c1.2-0.6,2.5-0.9,4.6-0.9c2,0,3.3,0.6,4,1.6c0.9-1,2.3-1.6,4.1-1.6c3.2,0,4.3,2.1,4.3,3.9
		v9.6H217.6z"/>
	<path class="st3" d="M224.8,101.7c0.2,3,1.6,4.5,4,4.5c1.5,0,2.6-0.4,3.3-0.8l0.6,1.4c-0.8,0.5-2.2,0.9-4,0.9
		c-3.5,0-5.9-2.2-5.9-6.9c0-4.5,2.2-6.8,5.3-6.8c3.2,0,5.1,2.1,5,6.5L224.8,101.7z M228,95.4c-1.9,0-3.3,1.5-3.3,5.1l6.3-1
		C231,96.6,229.9,95.4,228,95.4z"/>
	<path class="st3" d="M248.4,107.4h-1.9l-2.7-9.4c-0.2-0.8-0.3-1.5-0.3-1.5h0c0,0-0.1,0.7-0.3,1.5l-2.7,9.4h-1.9l-3.7-13.2h2.2
		l2.3,9.5c0.2,0.9,0.3,1.6,0.3,1.6h0.1c0,0,0.1-0.7,0.3-1.6l2.7-9.5h1.9l2.6,9.5c0.2,0.8,0.3,1.6,0.3,1.6h0c0,0,0.1-0.8,0.3-1.6
		l2.4-9.5h2L248.4,107.4z"/>
	<path class="st3" d="M259,107.7c-3.6,0-5.2-3-5.2-6.8c0-3.9,1.6-6.9,5.1-6.9c3.6,0,5.2,2.9,5.2,6.9
		C264.2,104.7,262.6,107.7,259,107.7z M259,95.4c-2.5,0-3,2.8-3,5.5c0,2.7,0.5,5.3,3,5.3c2.5,0,3-2.7,3-5.3S261.6,95.4,259,95.4z"/>
	<path class="st3" d="M272.3,95.7c-1.1-0.3-2.3-0.2-3,0.2v11.5h-2.2V95c1.3-0.7,2.5-1,5.7-0.9L272.3,95.7z"/>
	<path class="st3" d="M282.4,107.4l-5-6.8h0v6.8h-2.1V88.2h2.1v12.1h0l4.7-6.1h2.3l-5,6.2l5.5,7L282.4,107.4L282.4,107.4
		L282.4,107.4z"/>
</g>
</svg>
